<svg width="16" height="16" viewBox="0 0 16 16" fill="none" xmlns="http://www.w3.org/2000/svg">
<path d="M9.49977 11.13L8.99977 11.46V14H6.99977V11.46L3.99977 9.46V5H4.18977C3.92977 4.74 3.84977 4.36 3.92977 4H3.00977V10L6.00977 12V15H10.0098V12L10.2898 11.81C9.86977 11.75 9.59977 11.48 9.49977 11.13Z" fill="#CA4827"/>
<path d="M6 4C6 4 6 4 6 4.01C6.52 4.11 6.99 4.54 6.99 5H11.99V9.46C11.99 9.46 11.98 9.64 11.99 10L12.99 11V4H6Z" fill="#CA4827"/>
<path d="M6 4L5 3V1H6V4Z" fill="#CA4827"/>
<path d="M11 1H10V5H11V1Z" fill="#CA4827"/>
<path d="M2 2.5L13.5 15" stroke="#CA4827" stroke-miterlimit="10"/>
</svg>
